<svg width="105" height="63" viewBox="0 0 105 63" fill="none" xmlns="http://www.w3.org/2000/svg">
<path d="M29.8877 22.9887C29.7711 26.6267 31.6049 28.2378 31.6502 29.2609C31.6286 29.4692 31.5571 29.6693 31.4415 29.8445C31.326 30.0197 31.1698 30.1649 30.986 30.268L28.9125 31.7072C28.6442 31.8937 28.3279 32.0007 28.0005 32.0156C27.9308 32.0124 26.6738 32.3095 24.6829 27.9021C23.4682 29.4054 21.9227 30.6133 20.1648 31.4332C18.4068 32.2531 16.4829 32.6633 14.5404 32.6324C11.9032 32.7753 4.75602 31.1483 5.12374 23.6038C4.86618 17.4552 10.6413 13.6357 16.614 13.9585C17.7641 13.9617 20.113 14.0179 24.2261 14.9656V12.4567C24.6618 8.20665 21.8447 4.90908 16.9671 5.4038C16.5783 5.4054 13.8244 5.32349 9.54132 7.02768C8.34904 7.57058 8.19677 7.48064 7.79988 7.48064C6.59951 7.48064 7.09359 4.03048 7.32362 3.59359C8.16761 2.56561 13.1327 0.64618 18.0055 0.673486C21.2636 0.387784 24.5042 1.3848 27.0269 3.44903C28.0524 4.58636 28.8347 5.91798 29.3267 7.36347C29.8187 8.80895 30.0101 10.3383 29.8894 11.8592L29.8877 22.9887ZM15.8882 28.1912C21.1417 28.1157 23.3659 24.9836 23.8729 23.2971C24.2714 21.6828 24.205 20.6613 24.205 18.896C22.6385 18.5234 20.3836 18.117 17.7965 18.1138C15.3423 17.9307 10.8599 19.0181 11.0349 23.2955C10.834 25.9923 12.8363 28.339 15.8882 28.1912ZM43.5762 31.8935C42.3029 32.0092 41.71 31.1129 41.5221 30.2279L33.4548 3.78152C33.2977 3.33499 33.194 2.874 33.1438 2.40338C33.114 2.20936 33.1632 2.01155 33.2804 1.85343C33.3977 1.69531 33.5734 1.58982 33.7691 1.56012C33.808 1.55369 33.4241 1.56012 37.3735 1.56012C38.7958 1.41877 39.2591 2.52867 39.4065 3.22577L45.1929 25.8461L50.5646 3.22577C50.6505 2.70856 51.0409 1.44768 52.6381 1.581H55.4179C55.7695 1.55209 57.2177 1.50069 57.472 3.24665L62.8859 26.1561L68.8586 3.24665C68.9363 2.89649 69.2992 1.42038 70.9127 1.581H74.1072C74.2449 1.56012 75.1034 1.45089 74.9576 2.95913C74.888 3.25628 75.51 1.24691 66.4125 30.2488C66.2262 31.1338 65.6317 32.0301 64.3584 31.9144H61.3307C59.5585 32.0991 59.3042 30.3628 59.2766 30.1877L53.9049 8.16167L48.5948 30.1652C48.5689 30.3403 48.3145 32.0766 46.5407 31.8919H43.5762V31.8935ZM87.8783 32.7978C86.9257 32.7994 82.3834 32.7496 78.5863 30.8238C78.2081 30.665 77.8859 30.3984 77.6606 30.0578C77.4354 29.7173 77.3172 29.318 77.3211 28.9108V27.1841C77.3211 25.8269 78.3255 26.0758 78.7515 26.238C80.3779 26.8902 81.4212 27.3849 83.4186 27.78C89.3556 28.9895 91.967 27.4106 92.6069 27.0604C94.7371 25.806 94.9055 22.9357 93.4573 21.4467C91.7596 20.0348 90.9497 19.9818 84.8506 18.0736C84.0989 17.8664 77.7715 15.8876 77.7569 9.66349C77.6581 5.12753 81.8148 0.639755 89.0187 0.676698C91.0712 0.675092 96.5401 1.34007 98.0207 3.18561C98.2394 3.52131 98.3479 3.91644 98.3317 4.31639V5.94027C98.3317 6.65343 98.0693 7.01001 97.5428 7.01001C96.2938 6.87188 94.0778 5.21587 89.5792 5.28333C88.4631 5.22551 83.1173 5.4295 83.357 9.29406C83.2874 12.3394 87.6677 13.4815 88.1682 13.6132C94.0745 15.3752 96.0492 15.6675 98.3933 18.3644C101.17 21.9382 99.673 26.1224 99.0979 27.2692C96.0071 33.2909 88.0143 32.801 87.8783 32.7978ZM94.3904 49.6406C83.046 57.948 66.5777 62.3699 52.5166 62.3699C33.544 62.494 15.2108 55.5768 1.12088 42.978C0.06306 42.032 0.996144 40.7358 2.28237 41.457C17.9123 50.3219 35.6086 54.9799 53.615 54.9685C67.0616 54.897 80.3616 52.1922 92.751 47.0097C94.6593 46.2065 96.2776 48.2625 94.3904 49.6406ZM99.119 44.2935C97.6675 42.4432 89.516 43.4294 85.8663 43.8615C84.7663 43.9851 84.5801 43.0391 85.5763 42.3404C92.0674 37.8157 102.728 39.1119 103.953 40.633C105.176 42.1541 103.621 52.7455 97.5444 57.805C96.6113 58.5873 95.7188 58.1745 96.1335 57.1465C97.5007 53.7333 100.57 46.1455 99.119 44.2935Z" fill="#737373"/>
</svg>
