<svg width="84" height="59" viewBox="0 0 84 59" fill="none" xmlns="http://www.w3.org/2000/svg">
<path d="M0.5 0.995265H13.1121V35.0099C13.1121 40.4047 15.5438 43.6154 17.5215 44.9519C15.4627 46.761 9.22148 48.3582 4.52031 44.4955C1.76445 42.2138 0.5 38.4163 0.5 34.8795V0.995265ZM79.2689 29.2729V25.6873H83.1272V13.1701H78.8961C77.2588 5.62399 70.5961 0.0173645 62.6365 0.0173645C53.4611 0.0173645 45.9879 7.5146 45.9879 16.7558V45.9624C48.5816 46.3373 51.7266 45.9135 54.3689 43.6806C57.141 41.3989 58.3893 37.6176 58.3893 34.0646V32.9726H64.6791V20.4555H58.3893V16.658C58.3893 11.0187 66.8514 11.0187 66.8514 16.658V29.224C66.8514 38.4489 74.3084 45.9624 83.5 45.9624V33.4942C81.1494 33.4942 79.2689 31.5873 79.2689 29.2729V29.2729ZM31.5602 13.1375V31.5547C31.5602 34.0646 27.702 34.0646 27.702 31.5547V13.1375H15.252V34.7654C15.252 38.6444 16.5488 43.5665 22.5469 45.1801C28.5449 46.7773 31.9816 43.4524 31.9816 43.4524C31.6412 45.6364 29.6311 47.25 26.324 47.5759C23.8113 47.8367 20.6178 46.9892 19.0291 46.3047V57.7624C23.098 58.9848 27.3777 59.3596 31.6088 58.5284C39.2441 57.0453 44.0588 50.64 44.0588 42.0997V13.056H31.5602V13.1375V13.1375Z" fill="#737373"/>
</svg>
